<?xml version="1.0" standalone="no"?>
<!DOCTYPE svg PUBLIC "-//W3C//DTD SVG 20010904//EN"
 "http://www.w3.org/TR/2001/REC-SVG-20010904/DTD/svg10.dtd">
<svg version="1.0" xmlns="http://www.w3.org/2000/svg"
 width="512.000000pt" height="512.000000pt" viewBox="0 0 512.000000 512.000000"
 preserveAspectRatio="xMidYMid meet">

<g transform="translate(0.000000,512.000000) scale(0.100000,-0.100000)"
fill="#000000" stroke="none">
<path d="M901 5105 c-231 -51 -424 -158 -588 -328 -160 -166 -252 -339 -297
-559 -14 -65 -16 -166 -16 -642 l0 -564 68 -12 c37 -6 330 -58 652 -115 322
-57 588 -100 591 -97 3 4 39 194 80 422 66 370 74 429 74 540 0 114 -2 130
-26 181 -48 101 -129 164 -264 205 -33 10 -61 19 -63 20 -4 2 38 237 43 242 2
3 911 -156 997 -174 28 -6 7 27 611 -949 99 -159 237 -382 307 -495 215 -347
212 -340 194 -340 -9 0 -246 41 -526 90 -280 50 -515 90 -523 90 -11 0 -5 -15
19 -53 18 -28 114 -185 213 -347 502 -821 836 -1366 841 -1372 7 -6 285 -59
289 -54 9 8 272 1531 266 1537 -5 4 -68 17 -140 29 -104 18 -133 26 -133 38 0
9 32 194 72 411 65 356 72 409 72 526 1 121 -1 134 -26 187 -53 115 -114 168
-240 209 -38 12 -68 27 -68 33 0 16 39 229 43 232 3 3 1080 -186 1084 -190 2
-1 -7 -57 -19 -123 l-21 -121 -86 -4 c-186 -9 -301 -103 -357 -293 -14 -50
-175 -928 -171 -931 1 -1 277 -49 612 -108 336 -59 620 -110 633 -113 l22 -5
0 1016 c0 889 -2 1027 -16 1094 -45 220 -137 393 -297 559 -166 172 -358 278
-592 328 -101 21 -3215 21 -3314 0z m2552 -2701 c82 -14 107 -22 107 -34 0
-23 -47 -280 -52 -286 -4 -3 -158 239 -213 335 -6 11 -2 13 21 9 16 -3 77 -14
137 -24z"/>
<path d="M1720 3399 c-1 -18 -118 -661 -122 -664 -2 -2 -66 7 -142 21 -76 14
-140 24 -141 22 -2 -2 -28 -147 -59 -323 -31 -176 -66 -365 -77 -420 -53 -261
-91 -325 -236 -392 -49 -23 -75 -28 -165 -31 -60 -2 -108 -7 -108 -11 0 -4 -9
-58 -20 -121 -12 -62 -19 -113 -18 -115 2 -1 257 -46 568 -101 492 -87 566
-98 571 -85 14 35 41 223 33 231 -5 4 -31 13 -58 19 -105 26 -217 105 -256
182 -27 53 -43 162 -35 249 6 67 141 860 148 867 2 1 133 -20 291 -48 158 -28
290 -49 292 -46 3 3 -99 175 -226 384 -231 376 -240 390 -240 382z"/>
</g>
</svg>
