<?xml version="1.0" encoding="UTF-8"?>
<svg xmlns="http://www.w3.org/2000/svg" xmlns:xlink="http://www.w3.org/1999/xlink" width="32px" height="32px" viewBox="0 0 32 32" version="1.1">
<g id="surface1">
<path style=" stroke:none;fill-rule:nonzero;fill:rgb(0%,0%,0%);fill-opacity:1;" d="M 5.632812 0.09375 C 4.1875 0.414062 2.980469 1.082031 1.957031 2.144531 C 0.957031 3.179688 0.382812 4.261719 0.101562 5.636719 C 0.0117188 6.042969 0 6.675781 0 9.648438 L 0 13.175781 L 0.425781 13.25 C 0.65625 13.289062 2.488281 13.613281 4.5 13.96875 C 6.511719 14.324219 8.175781 14.59375 8.195312 14.574219 C 8.210938 14.550781 8.4375 13.363281 8.695312 11.9375 C 9.105469 9.625 9.15625 9.257812 9.15625 8.5625 C 9.15625 7.851562 9.144531 7.75 8.992188 7.429688 C 8.695312 6.800781 8.1875 6.40625 7.34375 6.148438 C 7.136719 6.085938 6.960938 6.03125 6.949219 6.023438 C 6.925781 6.011719 7.1875 4.542969 7.21875 4.511719 C 7.230469 4.492188 12.914062 5.488281 13.449219 5.601562 C 13.625 5.636719 13.492188 5.429688 17.269531 11.53125 C 17.886719 12.523438 18.75 13.917969 19.1875 14.625 C 20.53125 16.792969 20.511719 16.75 20.398438 16.75 C 20.34375 16.75 18.863281 16.492188 17.113281 16.1875 C 15.363281 15.875 13.894531 15.625 13.84375 15.625 C 13.773438 15.625 13.8125 15.71875 13.960938 15.957031 C 14.074219 16.132812 14.675781 17.113281 15.292969 18.125 C 18.429688 23.257812 20.519531 26.664062 20.550781 26.699219 C 20.59375 26.738281 22.332031 27.070312 22.355469 27.039062 C 22.414062 26.988281 24.054688 17.46875 24.019531 17.429688 C 23.988281 17.40625 23.59375 17.324219 23.144531 17.25 C 22.492188 17.136719 22.3125 17.085938 22.3125 17.011719 C 22.3125 16.957031 22.511719 15.800781 22.761719 14.445312 C 23.167969 12.21875 23.210938 11.886719 23.210938 11.15625 C 23.21875 10.398438 23.207031 10.320312 23.050781 9.988281 C 22.71875 9.269531 22.335938 8.9375 21.550781 8.679688 C 21.3125 8.605469 21.125 8.511719 21.125 8.476562 C 21.125 8.375 21.367188 7.042969 21.394531 7.023438 C 21.414062 7.007812 28.144531 8.1875 28.167969 8.210938 C 28.179688 8.21875 28.125 8.570312 28.050781 8.980469 L 27.917969 9.738281 L 27.382812 9.761719 C 26.21875 9.820312 25.5 10.40625 25.148438 11.59375 C 25.0625 11.90625 24.054688 17.394531 24.082031 17.414062 C 24.085938 17.417969 25.8125 17.71875 27.90625 18.085938 C 30.007812 18.457031 31.78125 18.773438 31.863281 18.792969 L 32 18.824219 L 32 12.476562 C 32 6.917969 31.988281 6.054688 31.898438 5.636719 C 31.617188 4.261719 31.042969 3.179688 30.042969 2.144531 C 29.007812 1.070312 27.804688 0.40625 26.34375 0.09375 C 25.710938 -0.0390625 6.25 -0.0390625 5.632812 0.09375 Z M 21.582031 16.976562 C 22.09375 17.0625 22.25 17.113281 22.25 17.1875 C 22.25 17.332031 21.957031 18.9375 21.925781 18.976562 C 21.898438 18.992188 20.9375 17.480469 20.59375 16.882812 C 20.554688 16.8125 20.582031 16.800781 20.726562 16.824219 C 20.824219 16.84375 21.207031 16.914062 21.582031 16.976562 Z M 21.582031 16.976562 "/>
<path style=" stroke:none;fill-rule:nonzero;fill:rgb(0%,0%,0%);fill-opacity:1;" d="M 10.75 10.757812 C 10.742188 10.867188 10.011719 14.886719 9.988281 14.90625 C 9.976562 14.917969 9.574219 14.863281 9.101562 14.773438 C 8.625 14.6875 8.226562 14.625 8.21875 14.636719 C 8.207031 14.648438 8.042969 15.554688 7.851562 16.65625 C 7.65625 17.757812 7.4375 18.9375 7.367188 19.28125 C 7.039062 20.914062 6.800781 21.3125 5.894531 21.730469 C 5.585938 21.875 5.425781 21.90625 4.863281 21.925781 C 4.488281 21.9375 4.1875 21.96875 4.1875 21.992188 C 4.1875 22.019531 4.132812 22.355469 4.0625 22.75 C 3.988281 23.136719 3.945312 23.457031 3.949219 23.46875 C 3.960938 23.476562 5.554688 23.757812 7.5 24.101562 C 10.574219 24.644531 11.039062 24.710938 11.070312 24.632812 C 11.15625 24.414062 11.324219 23.238281 11.273438 23.1875 C 11.242188 23.164062 11.082031 23.105469 10.914062 23.070312 C 10.257812 22.90625 9.554688 22.414062 9.3125 21.929688 C 9.144531 21.601562 9.042969 20.917969 9.09375 20.375 C 9.132812 19.957031 9.976562 15 10.019531 14.957031 C 10.03125 14.949219 10.851562 15.082031 11.835938 15.257812 C 12.824219 15.429688 13.648438 15.5625 13.664062 15.542969 C 13.679688 15.523438 13.042969 14.449219 12.25 13.144531 C 10.804688 10.792969 10.75 10.707031 10.75 10.757812 Z M 10.75 10.757812 "/>
</g>
</svg>
